<svg xmlns="http://www.w3.org/2000/svg" width="65" height="64" fill="none"><path fill="#3969EF" d="M15.083 16h33.834c1.334 0 2.416 1.194 2.416 2.667v12A3.333 3.333 0 0 1 48 34h-6a8 8 0 0 0-8 8v3.333H12.667V18.667c0-1.473 1.082-2.667 2.416-2.667Z"/><path fill="#CCDAFF" fill-rule="evenodd" d="M34 43.333H16v-24h32V34h-6a8 8 0 0 0-8 8v1.333Z" clip-rule="evenodd"/><path fill="#3969EF" d="M31.667 25.667h-4v4h4v-4ZM31.667 30.333h-4v4h4v-4ZM32.333 25.667h4v4h-4v-4ZM36.333 30.333h-4v4h4v-4Z"/><path fill="#7295F6" fill-rule="evenodd" d="M34 42H9.334v3.333H34V42Z" clip-rule="evenodd"/><path fill="#3969EF" d="M34 45.333H9.334l1.686 1.886c.448.5 1.055.78 1.688.78h18.626A2.667 2.667 0 0 0 34 45.334Z"/><path fill="#DE5833" d="M36.667 42A5.333 5.333 0 0 1 42 36.667h10.667A5.333 5.333 0 0 1 58 42v10.667A5.333 5.333 0 0 1 52.667 58H42a5.333 5.333 0 0 1-5.333-5.333V42Z"/><path fill="#fff" d="M49.876 46.976c-.065.042-.274.018-.549-.014-2.44-.429-2.678.964-1.502 3.083-1.065.317.19 3.387 1.215 5.692-1.12.397-3.181.311-4.135-.04l-.005-.016c-.209-.077-.468-.077-.59-.242-.328-2.255-4.904-13.018.687-13.723.035-.01-.722-.245-1.742.01-1.274.254 1.238-3.471 3.878-.205 2.869.627 3.074 5.245 2.744 5.455Z"/><path fill="#4CBA3C" d="M50.86 54.06c-.029.182-.092.304-.204.322-.213.032-1.165-.186-1.706-.392-.062.283-1.513.551-1.742.171-.527.455-1.536 1.115-1.747.977-.403-.264-.783-2.3-.48-2.73.462-.42 1.433.036 2.114.277.231-.39 1.35-.538 1.581-.218.612-.465 1.633-1.12 1.732-1 .496.597.559 2.02.451 2.593Z"/><path fill="#FC3" fill-rule="evenodd" d="M45.686 47.913c.209-1.477 2.998-1.015 4.246-1.18a8.08 8.08 0 0 0 2.033-.504c1.032-.424 1.208-.004.703.656-1.424 1.69-4.592.46-5.16 1.333-.165.259-.037.868 1.266 1.06 1.76.259 3.207-.312 3.386.033-.402 1.843-7.087 1.216-6.474-1.398Z" clip-rule="evenodd"/><g fill="#14307E" opacity=".8"><path d="M47.933 43.637c.181-.382 1.13-.385 1.315.015.023.033-.012.072-.05.056-.73-.392-1.31.146-1.265-.071ZM43.913 43.847c.407-.227.962-.002.848-.144-.392-.395-1.47-.088-1.494.548 0 .048.096.052.12.011.068-.109.18-.267.526-.415Z"/><path fill-rule="evenodd" d="M48.91 45.881c-.726-.004-.726-1.123 0-1.126.726.003.726 1.122 0 1.126ZM45.232 45.708c-.015.863-1.28.863-1.294 0 .004-.86 1.29-.859 1.294 0Z" clip-rule="evenodd"/></g><path fill="#fff" fill-rule="evenodd" d="M47.333 39.304a8.03 8.03 0 1 0 0 16.059 8.03 8.03 0 0 0 0-16.059Zm-9.304 8.03a9.304 9.304 0 1 1 18.608 0 9.304 9.304 0 0 1-18.608 0Z" clip-rule="evenodd"/><path fill="#CCC" d="M60.936 47.204h2.402c.44 0 .8.36.8.8 0 .44-.36.801-.8.801h-2.402c-.44 0-.8-.36-.8-.8 0-.44.36-.8.8-.8ZM61.737 40a.802.802 0 0 1 .564 1.369l-1.601 1.6a.802.802 0 0 1-1.133-1.132l1.601-1.6a.798.798 0 0 1 .565-.237h.004ZM60.14 52.808a.802.802 0 0 0-.564 1.369l1.6 1.6a.802.802 0 0 0 1.133-1.132l-1.6-1.601a.798.798 0 0 0-.565-.236h-.004Z"/></svg>